<svg width="323" height="279" viewBox="0 0 323 279" fill="none" xmlns="http://www.w3.org/2000/svg">
<path fill-rule="evenodd" clip-rule="evenodd" d="M256.417 9.30234C247.534 10.7904 241.187 18.7302 241.795 27.5932C242.161 32.9445 243.64 35.7097 249.584 42.1614C269.38 63.6479 281.226 87.7783 286.198 116.746C287.879 126.545 288.02 149.65 286.457 159.638C281.98 188.27 270.018 213.221 250.55 234.539C243.444 242.321 241.932 245.283 241.951 251.39C241.967 256.871 243.23 260.119 246.695 263.599C253.283 270.213 263.388 270.826 270.304 265.031C273.001 262.771 281.426 253.404 285.66 247.96C296.251 234.339 306.951 215.04 312.46 199.626C328.026 156.065 326.302 108.794 307.612 66.7429C299.986 49.5845 288.04 31.7646 274.798 17.7927C269.527 12.2321 266.554 10.1593 263.003 9.5693C261.75 9.36122 260.341 9.11826 259.871 9.02908C259.402 8.9399 257.847 9.06281 256.417 9.30234ZM209.74 49.4804C200.941 51.978 195.644 60.6073 197.308 69.7315C198.067 73.8904 199.206 75.7826 204.808 82.1766C223.057 103.009 230.327 130.424 224.593 156.786C221.344 171.725 215.245 183.432 203.967 196.383C201.838 198.828 199.574 201.855 198.937 203.109C192.793 215.201 202.08 229.676 215.322 228.645C220.755 228.223 224.275 226.196 229.735 220.346C246.626 202.244 257 180.543 260.787 155.388C262.047 147.018 262.037 130.149 260.768 121.908C257.495 100.665 250.27 83.2296 237.908 66.7429C231.19 57.7832 225.939 52.4691 222.025 50.6706C218.215 48.9185 213.37 48.4497 209.74 49.4804Z" fill="black"/>
<path d="M115.515 29.4721C152.736 1.54751 151.951 2.10946 155.653 0.72751C159.126 -0.568423 165.373 -0.0798061 169.001 1.77032C173.463 4.04702 176.048 6.57402 178.005 10.5746L179.812 14.2671L179.627 140.1C179.459 255.507 179.347 266.11 178.28 268.049C176.394 271.478 172.071 275.489 168.709 276.931C164.64 278.675 157.862 278.688 154.061 276.96C152.509 276.254 135.483 263.898 116.225 249.502L81.2085 223.328L13.045 222.924L9.74807 220.986C7.93461 219.92 5.48446 217.875 4.30346 216.443C-0.182956 211 0.00105763 214.304 0.00105763 139.273C0.00105763 72.3472 0.0285602 70.9589 1.43731 67.1945C2.39198 64.6421 3.94175 62.3711 6.06263 60.4159C12.0163 54.9283 10.3869 55.1419 48.1805 54.9015L81.9065 54.6871L115.515 29.4721Z" fill="black"/>
</svg>
